<?xml version="1.0"?><svg width="100" height="100" xmlns="http://www.w3.org/2000/svg">
 <title>Star Grey</title>
 <metadata id="metadata7">image/svg+xmlicon_star2008-05-12Jean-Victor Balinfr-FRiconstarfavouritejean.victor.balin@gmail.com</metadata>
 <g>
  <title>Layer 1</title>
  <g id="layer1">
   <rect stroke-width="10" fill="#22965E" y="46.214408" x="54.856386" width="15.341464" id="rect3465" height="0"/>
   <path stroke-width="10" fill="#22965E" id="path2426" d="m52.312771,16.511089c-1.052681,-0.024679 -2.02277,0.57114 -2.483532,1.525051l-10.129448,20.726051l-22.586342,3.344059c-1.01433,0.144249 -1.859419,0.855988 -2.180179,1.836151c-0.32077,0.98016 -0.061601,2.05872 0.668599,2.78257l16.442831,16.092098l-3.907881,22.740959c-0.180571,1.032188 0.245491,2.077003 1.094311,2.683128c0.848839,0.606392 1.968439,0.665382 2.875578,0.151985l20.278931,-10.70163l20.206242,10.652687c0.902596,0.473473 1.993118,0.393867 2.818489,-0.20607c0.825371,-0.599953 1.244186,-1.617447 1.082848,-2.629822l-3.89212,-22.651817l16.417664,-16.196182c0.775261,-0.721008 1.06086,-1.831779 0.730766,-2.841297c-0.330109,-1.009521 -1.215294,-1.731823 -2.264145,-1.847492l-22.645279,-3.216228l-10.113094,-20.701561c-0.444901,-0.9377 -1.38253,-1.536869 -2.414238,-1.542641l0,0z"/>
   <path stroke-width="10" fill="#22965E" id="path2428" d="m52.240162,21.196779l-9.946133,20.502199c-0.09103,0.195782 -0.249557,0.352142 -0.445919,0.43972c-0.053452,0.026791 -0.10944,0.048172 -0.167229,0.063633l-22.252201,3.216618l16.149189,15.819309c0.215782,0.218441 0.305222,0.53297 0.236919,0.833332l-3.787888,22.348629l19.944778,-10.574371c0.25288,-0.128029 0.550758,-0.127251 0.80312,0.001541l19.896091,10.540108l-3.836639,-22.403496c-0.050369,-0.285152 0.039116,-0.577271 0.240097,-0.784382l16.146622,-15.900459l-22.247929,-3.1754c-0.288162,-0.037609 -0.54002,-0.214321 -0.67477,-0.473721l-10.058109,-20.45326z"/>
  </g>
 </g>
</svg>